<svg xmlns="http://www.w3.org/2000/svg" width="1920" height="1080" viewBox="0 0 1920 1080">
 <rect width="1920" height="1080" fill="#071016"/>
 <path d="M0 840H1920" stroke="#152A34" stroke-width="2"/>
 <g transform="translate(280 650)">
  <path d="M26 4H1334L1360 30V354L1334 380H26L4 354V30Z" fill="#182630" stroke="#F2E7D4" stroke-width="8"/>
  <path d="M42 28H1322" stroke="#52D1D0" stroke-width="4"/>
  <path d="M43 73H1320" stroke="#41515A" stroke-width="2"/>
  <path d="M20 77V30L46 4M1314 4L1360 28V77M20 307V354L46 380M1314 380L1360 354V307" fill="none" stroke="#F2E7D4" stroke-width="5"/>
  <circle cx="52" cy="48" r="8" fill="#52D1D0"/><circle cx="1309" cy="48" r="8" fill="#52D1D0"/>
  <text x="80" y="56" fill="#D7E7E4" font-family="Arial, sans-serif" font-size="23" letter-spacing="4">선내 관리 시스템</text>
  <text x="80" y="167" fill="#F2E7D4" font-family="Arial, sans-serif" font-size="43" font-weight="600">주 동력 상실. 동면 유지 회로 정지됨.</text>
  <text x="80" y="235" fill="#AFC1C3" font-family="Arial, sans-serif" font-size="32">각성은 일정이 아니라 고장의 결과임.</text>
  <text x="1232" y="332" fill="#52D1D0" font-family="Arial, sans-serif" font-size="22" text-anchor="end" letter-spacing="2">LOG / 01</text>
 </g>
</svg>
